<svg width="510" height="510" viewBox="0 0 510 510" fill="none" xmlns="http://www.w3.org/2000/svg">
<path d="M434.037 436.575C434.037 436.575 345.819 397.408 318.251 408.681C290.618 419.986 255 510 255 510C255 510 218.973 419.413 191.045 408.386C163.772 397.605 77.5667 438.129 77.5667 438.129C77.5667 438.129 113.462 346.282 101.306 318.241C89.4611 290.837 0 254.992 0 254.992C0 254.992 90.0664 218.754 101.617 191.039C113.168 163.341 75.5216 73.8504 75.5216 73.8504C75.5216 73.8504 164.148 112.673 191.749 101.303C219.382 89.9653 255 0 255 0C255 0 292.09 88.2148 318.954 101.614C348.355 116.273 449.89 90.5707 449.89 90.5707C449.89 90.5707 400.268 165.779 408.677 191.759C417.872 220.161 510 255.008 510 255.008C510 255.008 419.999 291.279 408.383 318.961C396.767 346.642 434.02 436.591 434.02 436.591L434.037 436.575Z" fill="#FFEDCA"/>
</svg>
