<svg width="112" height="113" viewBox="0 0 112 113" fill="none" xmlns="http://www.w3.org/2000/svg">
<path d="M95.3178 96.2352C95.3178 96.2352 75.9446 87.6017 69.8904 90.0864C63.8219 92.5784 56 112.421 56 112.421C56 112.421 48.0883 92.4522 41.9551 90.0215C35.9656 87.6449 17.0343 96.5778 17.0343 96.5778C17.0343 96.5778 24.9172 76.3318 22.2477 70.1506C19.6463 64.1099 0 56.2085 0 56.2085C0 56.2085 19.7793 48.2204 22.3159 42.1113C24.8526 36.0057 16.5851 16.279 16.5851 16.279C16.5851 16.279 36.0482 24.8369 42.1096 22.3305C48.1781 19.8313 56 0 56 0C56 0 64.1452 19.4454 70.0449 22.399C76.5015 25.6303 98.7994 19.9647 98.7994 19.9647C98.7994 19.9647 87.902 36.5431 89.7487 42.2699C91.768 48.5305 112 56.2121 112 56.2121C112 56.2121 92.2351 64.2073 89.6841 70.3092C87.1331 76.4112 95.3142 96.2388 95.3142 96.2388L95.3178 96.2352Z" fill="#FFEDCA"/>
</svg>
