<?xml version="1.0" encoding="utf-8"?>
<!-- Generator: Adobe Illustrator 28.0.0, SVG Export Plug-In . SVG Version: 6.00 Build 0)  -->
<svg version="1.1" id="Слой_1" xmlns="http://www.w3.org/2000/svg" xmlns:xlink="http://www.w3.org/1999/xlink" x="0px" y="0px"
	 viewBox="0 0 785 311" style="enable-background:new 0 0 785 311;" xml:space="preserve">
<style type="text/css">
	.st0{clip-path:url(#SVGID_00000070086447132859905650000012482817862526306468_);}
</style>
<g>
	<defs>
		<rect id="SVGID_1_" width="785" height="311"/>
	</defs>
	<clipPath id="SVGID_00000099648977953208181110000009735045388756291206_">
		<use xlink:href="#SVGID_1_"  style="overflow:visible;"/>
	</clipPath>
	<g style="clip-path:url(#SVGID_00000099648977953208181110000009735045388756291206_);">
		<path d="M38.9,85.1H23.1v66.7H0V0h23.1v60.8h15.8V0H62v151.9H38.9V85.1z"/>
		<path d="M103,154h-4.5c-18.2,0-28-9.9-28-28.6V95.2h22.7v26.4c0,6.9,2.2,10.6,7.5,10.6c5.5,0,7.5-3.7,7.5-13v-3.4
			c0-10.8-1-14.6-9.3-25.4L84.4,71.6C74.6,59,71.8,49.3,71.8,34.3v-4.9C71.8,9.3,81.9,0,100,0h4.3c18.8,0,26.1,8.3,26.1,26.2v24.8
			h-22.1V29.2c0-5.1-1-8.9-6.5-8.9c-5.5,0-6.7,3.5-6.7,10.6v2.8c0,8.5,1.6,13.2,9.3,23.1L119,75.7c10.3,13.4,13.6,21.1,13.6,38.1
			v4.9C132.6,140.8,123.1,154,103,154z"/>
		<path d="M191.3,0v22H162v39.8h23v23.1h-23v43.9h30.5v23.1H139V0H191.3z"/>
		<path d="M254.7,123.3h-16.9l-3.1,28.6h-20.8L232.6,0h27.6l20,151.9h-22.4L254.7,123.3z M252.2,100.6L246,44.5l-6,56.1H252.2z"/>
		<path d="M307.3,151.9h-22.8V0h37c15.2,0,22.8,6.5,22.8,23.5v26.9c0,12.7-5.9,17.6-9.9,19.4c5.1,2.2,9.9,6.3,9.9,16.5v53.3
			c0,6.1,1.2,9,2.2,11.2v1h-22.6c-1-1.6-2.2-4.3-2.2-12.5V93.7c0-6.7-1.2-9.6-8.5-9.6h-5.9V151.9z M307.3,62.5h6.1
			c6.3,0,8.3-4.1,8.3-10.8V30.4c0-6.5-1.4-9.8-8.3-9.8h-6.1V62.5z"/>
		<path d="M391.1,22v129.8h-23V22h-19.5V0h62v22H391.1z"/>
		<path d="M471.5,123.3h-16.3l-3,28.6H432L450.2,0h26.7l19.3,151.9h-21.7L471.5,123.3z M469.1,100.6l-6-56.1l-5.8,56.1H469.1z"/>
		<path d="M521.4,0l19.9,81.4V0h21.2v151.9h-18.9l-22.2-87.4v87.4h-20.9V0H521.4z"/>
		<path d="M571.1,0h35.8c20.1,0,26.3,11.2,26.3,29.2v92.5c0,18.6-7,30.2-26.3,30.2h-35.8V0z M594.4,129.8h5.6c7,0,9.1-3.7,9.1-11.8
			V32.5c0-8.8-2.3-11.8-8.1-11.8h-6.6V129.8z"/>
		<path d="M0,156.1h35.8c20.1,0,26.3,11.2,26.3,29.2v92.5c0,18.6-7,30.2-26.3,30.2H0V156.1z M23.4,286h5.6c7,0,9.1-3.7,9.1-11.8
			v-85.5c0-8.8-2.3-11.8-8.1-11.8h-6.6V286z"/>
		<path d="M122.8,156.1v22H93.6V218h23v23.1h-23v43.9h30.5V308H70.6V156.1H122.8z"/>
		<path d="M160.8,310.2h-4.5c-18.2,0-28-10.1-28-29v-30.7H151v26.7c0,7,2.2,10.7,7.5,10.7c5.5,0,7.5-3.7,7.5-13.2v-3.5
			c0-10.9-1-14.8-9.3-25.7l-14.6-18.9c-9.7-12.8-12.6-22.6-12.6-37.9v-4.9c0-20.4,10.1-29.8,28.2-29.8h4.3
			c18.9,0,26.1,8.4,26.1,26.5v25.1H166v-22c0-5.1-1-9.1-6.5-9.1c-5.5,0-6.7,3.5-6.7,10.7v2.9c0,8.6,1.6,13.4,9.3,23.5l14.6,19.1
			c10.3,13.6,13.6,21.4,13.6,38.7v4.9C190.4,296.8,180.8,310.2,160.8,310.2z"/>
		<path d="M220.2,307.5h-23.1V155.6h23.1V307.5z"/>
		<path d="M250.3,310.2c-13.1,0-21.5-12.1-21.5-27.9v-95.4c0-17,6.4-32.8,27.7-32.8h4.4c24.1,0,26.9,16.2,26.9,34.3v15.6h-21.9
			v-17.2c0-6.8-1.6-10.5-7.2-10.5c-4.8,0-7,3.7-7,10.5v89.3c0,7.2,2.8,10.9,7.4,10.9c5.8,0,8.4-4.1,8.4-9.9v-38.2h-10.1v-23.4h31.4
			v92.7H276c-0.2-0.8-2-8.4-3.8-15c-1.6,5.1-9.1,17-20.5,17H250.3z"/>
		<path d="M318.2,156.1l19.9,81.4v-81.4h21.2V308h-18.9l-22.2-87.4V308h-21V156.1H318.2z"/>
		<path d="M419.6,310.2h-4.5c-18.2,0-28-10.1-28-29v-30.7h22.7v26.7c0,7,2.2,10.7,7.5,10.7c5.5,0,7.5-3.7,7.5-13.2v-3.5
			c0-10.9-1-14.8-9.3-25.7l-14.6-18.9c-9.7-12.8-12.6-22.6-12.6-37.9v-4.9c0-20.4,10.1-29.8,28.2-29.8h4.3
			c18.8,0,26.1,8.4,26.1,26.5v25.1h-22.1v-22c0-5.1-1-9.1-6.5-9.1c-5.5,0-6.7,3.5-6.7,10.7v2.9c0,8.6,1.6,13.4,9.3,23.5l14.6,19.1
			c10.3,13.6,13.6,21.4,13.6,38.7v4.9C449.1,296.8,439.6,310.2,419.6,310.2z"/>
		<path d="M493.2,277.3v-35.5h22.2v35.3c0,16.4-5.2,33.1-27,33.1h-5c-22.8,0-27.8-16.8-27.8-32.3v-93.3c0-15.6,6.6-30.6,27-30.6h5.2
			c24.8,0,27.6,16.8,27.6,31.8v27.3h-22.2v-26.9c0-6.6-2-10.1-7.6-10.1c-5.6,0-7,3.3-7,10.1v90.8c0,6.8,2.2,10.5,7.2,10.5
			C491.2,287.5,493.2,283.4,493.2,277.3z"/>
		<path d="M562.9,241.3h-15.8V308H524V156.1h23.1V217h15.8v-60.8H586V308h-23.1V241.3z"/>
		<path d="M656.6,274.2c0,21.4-7.3,36-29.9,36h-3.9c-22.4,0-30.3-14.6-30.3-36v-85.1c0-21.2,8.1-35.1,30.1-35.1h3.9
			c22.8,0,30.1,14,30.1,34.9V274.2z M632.7,187.9c0-8-2.7-11.7-8.1-11.7c-6,0-8.3,3.9-8.3,11.7v87.9c0,6.6,1.9,11.7,8.5,11.7
			c6.2,0,7.9-5.1,7.9-11.7V187.9z"/>
		<path d="M727.2,274.2c0,21.4-7.3,36-29.9,36h-3.9c-22.4,0-30.3-14.6-30.3-36v-85.1c0-21.2,8.1-35.1,30.1-35.1h3.9
			c22.8,0,30.1,14,30.1,34.9V274.2z M703.3,187.9c0-8-2.7-11.7-8.1-11.7c-6,0-8.3,3.9-8.3,11.7v87.9c0,6.6,1.9,11.7,8.5,11.7
			c6.2,0,7.9-5.1,7.9-11.7V187.9z"/>
		<path d="M757.9,156.1v128.4h27V308h-49.2V156.1H757.9z"/>
	</g>
</g>
</svg>
