<svg width="480" height="480" viewBox="0 0 480 480" fill="none" xmlns="http://www.w3.org/2000/svg">
<path d="M408.505 410.894C408.505 410.894 325.477 374.031 299.53 384.641C273.522 395.281 240 480 240 480C240 480 206.093 394.742 179.808 384.363C154.138 374.216 73.004 412.357 73.004 412.357C73.004 412.357 106.788 325.913 95.3471 299.521C84.1986 273.729 0 239.992 0 239.992C0 239.992 84.7684 205.886 95.6397 179.802C106.511 153.733 71.0792 69.5063 71.0792 69.5063C71.0792 69.5063 154.492 106.046 180.47 95.344C206.478 84.6733 240 0 240 0C240 0 274.908 83.0257 300.192 95.6366C327.863 109.433 423.426 85.243 423.426 85.243C423.426 85.243 376.723 156.027 384.637 180.479C393.291 207.21 480 240.008 480 240.008C480 240.008 395.293 274.145 384.36 300.198C373.427 326.252 408.49 410.909 408.49 410.909L408.505 410.894Z" fill="#D7EFC7"/>
</svg>
