<svg width="135" height="135" viewBox="0 0 135 135" fill="none" xmlns="http://www.w3.org/2000/svg">
<path d="M114.381 115.05C114.381 115.05 91.1335 104.729 83.8685 107.699C76.5863 110.679 67.2 134.4 67.2 134.4C67.2 134.4 57.7059 110.528 50.3461 107.622C43.1587 104.781 20.4411 115.46 20.4411 115.46C20.4411 115.46 29.9007 91.2556 26.6972 83.8658C23.5756 76.6442 0 67.1978 0 67.1978C0 67.1978 23.7351 57.648 26.7791 50.3445C29.8231 43.0452 19.9022 19.4618 19.9022 19.4618C19.9022 19.4618 43.2579 29.6928 50.5315 26.6963C57.8137 23.7085 67.2 0 67.2 0C67.2 0 76.9743 23.2472 84.0539 26.7782C91.8018 30.6413 118.559 23.868 118.559 23.868C118.559 23.868 105.482 43.6876 107.698 50.5342C110.122 58.0188 134.4 67.2021 134.4 67.2021C134.4 67.2021 110.682 76.7606 107.621 84.0555C104.56 91.3504 114.377 115.055 114.377 115.055L114.381 115.05Z" fill="#FFEDCA"/>
</svg>
