<svg width="219" height="219" viewBox="0 0 219 219" fill="none" xmlns="http://www.w3.org/2000/svg">
<path d="M186.278 187.368C186.278 187.368 148.417 170.558 136.586 175.396C124.726 180.248 109.44 218.88 109.44 218.88C109.44 218.88 93.9782 180.002 81.9922 175.27C70.2871 170.643 33.2898 188.035 33.2898 188.035C33.2898 188.035 48.6954 148.616 43.4783 136.581C38.3946 124.821 0 109.436 0 109.436C0 109.436 38.6544 93.8839 43.6117 81.9896C48.569 70.1023 32.4121 31.6949 32.4121 31.6949C32.4121 31.6949 70.4486 48.3568 82.2942 43.4769C94.1538 38.611 109.44 0 109.44 0C109.44 0 125.358 37.8597 136.888 43.6103C149.506 49.9015 193.082 38.8708 193.082 38.8708C193.082 38.8708 171.786 71.1485 175.395 82.2985C179.341 94.4878 218.88 109.444 218.88 109.444C218.88 109.444 180.254 125.01 175.268 136.89C170.283 148.771 186.271 187.375 186.271 187.375L186.278 187.368Z" fill="#FFBC27"/>
</svg>
