<svg width="328" height="328" viewBox="0 0 328 328" fill="none" xmlns="http://www.w3.org/2000/svg">
<path d="M278.805 280.435C278.805 280.435 222.138 255.276 204.429 262.517C186.679 269.779 163.8 327.6 163.8 327.6C163.8 327.6 140.658 269.411 122.719 262.328C105.199 255.403 49.8252 281.434 49.8252 281.434C49.8252 281.434 72.8829 222.435 65.0744 204.423C57.4656 186.82 0 163.795 0 163.795C0 163.795 57.8544 140.517 65.2741 122.715C72.6937 104.923 48.5115 47.438 48.5115 47.438C48.5115 47.438 105.441 72.3761 123.171 65.0723C140.921 57.7895 163.8 0 163.8 0C163.8 0 187.625 56.665 204.881 65.272C223.767 74.6881 288.988 58.1783 288.988 58.1783C288.988 58.1783 257.113 106.489 262.515 123.177C268.421 141.421 327.6 163.805 327.6 163.805C327.6 163.805 269.788 187.104 262.326 204.885C254.864 222.667 278.794 280.446 278.794 280.446L278.805 280.435Z" fill="#BF7B4C"/>
</svg>
