<svg width="699" height="137" viewBox="0 0 699 137" fill="none" xmlns="http://www.w3.org/2000/svg">
<path d="M638.75 132.621C625.5 132.621 615.542 132.621 608.875 132.621C611.708 132.537 614.292 131.408 616.625 129.233C618.875 127.059 620.042 124.967 620.125 122.96C620.125 77.5401 620.125 43.4961 620.125 20.8279C619.875 19.4059 618.625 18.0258 616.375 16.6874C614.042 15.4327 611.583 14.8054 609 14.8054C612.833 14.8054 616.208 13.3834 619.125 10.5394C622.125 7.69547 623.708 4.34962 623.875 0.501892C624.292 4.8515 625.917 8.32281 628.75 10.9158C631.667 13.5089 635 14.8054 638.75 14.8054C635.583 15.0563 632.958 15.851 630.875 17.1893C628.875 18.5277 627.792 19.6151 627.625 20.4515C627.625 21.7062 627.625 28.5234 627.625 40.903C627.625 53.199 627.625 59.5561 627.625 59.9744C628.875 61.1454 632.208 62.0655 637.625 62.7347C642.958 63.4039 648.292 63.8639 653.625 64.1148C658.625 63.9476 664.125 63.4875 670.125 62.7347C676.042 61.8982 679.333 60.8945 680 59.7234C680 42.5759 680 29.7362 680 21.2043C679.917 19.7823 678.667 18.4022 676.25 17.0638C673.833 15.7255 671.375 15.0563 668.875 15.0563C673.292 14.9727 676.833 13.4252 679.5 10.414C682.167 7.48635 683.583 4.22415 683.75 0.627361C684.083 4.97697 685.708 8.49011 688.625 11.1668C691.625 13.7598 694.875 15.0563 698.375 15.0563C695.208 15.3909 692.667 16.1856 690.75 17.4403C688.833 18.7786 687.75 19.8242 687.5 20.577C687.5 66.0805 687.5 100.208 687.5 122.96C687.583 125.386 688.833 127.602 691.25 129.61C693.667 131.617 696.083 132.621 698.5 132.621C685.25 132.621 675.333 132.621 668.75 132.621C672.5 132.203 675.292 130.99 677.125 128.982C678.958 127.059 679.917 125.135 680 123.211C680 100.877 680 84.1063 680 72.8977C679.083 71.5594 675.417 70.6811 669 70.2628C662.667 69.761 657.25 69.4264 652.75 69.2591C648.333 69.4264 643.417 69.761 638 70.2628C632.583 70.7647 629.125 71.5175 627.625 72.5213C627.625 94.9385 627.625 111.71 627.625 122.835C627.708 125.177 628.958 127.351 631.375 129.359C633.708 131.45 636.167 132.537 638.75 132.621Z" fill="#FFEDCA"/>
<path d="M591.046 119.757C587.063 125.743 582.125 130.049 576.234 132.673C570.425 135.379 564.242 136.773 557.687 136.855C551.131 136.855 544.907 135.748 539.015 133.534C533.124 131.32 528.145 127.219 524.078 121.233C520.095 115.247 517.274 107.498 515.614 97.9853C513.871 88.473 513 79.4936 513 71.0473C513 62.601 513.83 53.9087 515.49 44.9703C517.149 35.95 519.971 28.4467 523.954 22.4605C527.937 16.4742 532.792 12.2101 538.517 9.66797C544.243 7.12588 550.592 5.85483 557.562 5.85483C564.201 5.85483 570.466 7.16688 576.358 9.79098C582.167 12.4151 587.104 16.7612 591.171 22.8295C595.154 28.8157 597.934 36.237 599.51 45.0933C601.17 53.9497 602 62.601 602 71.0473C602 79.4936 601.17 88.227 599.51 97.2473C597.934 106.268 595.112 113.771 591.046 119.757ZM592.166 71.4163C592.166 63.954 591.503 56.0407 590.175 47.6764C588.764 39.3121 586.607 32.5058 583.702 27.2576C580.798 21.9274 576.731 18.0323 571.503 15.5722C566.193 13.0301 561.504 11.7591 557.438 11.7591C553.372 11.7591 548.683 13.0301 543.372 15.5722C538.144 18.1143 534.078 22.0504 531.173 27.3806C528.269 32.6289 526.111 39.3531 524.701 47.5534C523.29 55.6717 522.585 63.462 522.585 70.9243C522.585 78.4686 523.29 86.5869 524.701 95.2792C526.194 103.972 528.393 110.983 531.298 116.313C534.202 121.561 538.269 125.169 543.497 127.137C548.807 129.106 553.496 130.09 557.562 130.09C561.628 130.09 566.317 128.819 571.628 126.276C576.939 123.816 581.047 119.962 583.951 114.714C586.855 109.384 588.972 102.701 590.299 94.6642C591.544 86.6279 592.166 78.8786 592.166 71.4163Z" fill="#FFEDCA"/>
<path d="M424.5 15.1818C428.583 15.1818 432.083 13.718 435 10.7904C437.917 7.7791 439.375 4.18231 439.375 0C439.375 1.84022 439.667 3.55496 440.25 5.14424C440.833 6.81717 441.667 8.28098 442.75 9.53567C443.167 10.1212 443.75 10.5812 444.5 10.9158C445.167 11.2504 445.875 11.4177 446.625 11.4177C456.625 11.4177 465.667 11.4177 473.75 11.4177C481.75 11.4177 487.583 11.3759 491.25 11.2922C492.167 11.3759 493 11.1249 493.75 10.5394C494.5 10.0375 495.167 9.36838 495.75 8.53191C496.417 7.69545 497 6.52441 497.5 5.01877C498 3.59679 498.292 2.09116 498.375 0.501877C498.458 3.84773 499.792 7.10993 502.375 10.2885C505.042 13.467 508.708 15.0981 513.375 15.1818C512.708 15.0981 511.833 15.14 510.75 15.3073C509.75 15.4746 508.708 15.8091 507.625 16.311C505.458 17.2311 503.417 18.7786 501.5 20.9534C499.667 23.1282 498.625 26.1813 498.375 30.1126C498.375 27.185 497.667 24.592 496.25 22.3335C494.75 19.9914 493.167 18.8622 491.5 18.9459C487.083 19.0295 483.333 19.0295 480.25 18.9459C477.167 18.9459 475.333 18.9459 474.75 18.9459C473.917 19.0295 473.417 19.4059 473.25 20.0751C473 20.7443 472.875 21.3298 472.875 21.8317C472.875 44.2488 472.875 77.8328 472.875 122.584C472.875 123.336 473 124.089 473.25 124.842C473.5 125.511 473.833 126.18 474.25 126.849C475.583 128.69 477.083 130.112 478.75 131.115C480.417 132.203 482.208 132.747 484.125 132.747C477.458 132.747 467.5 132.747 454.25 132.747C456.167 132.747 457.958 132.203 459.625 131.115C461.292 130.112 462.792 128.69 464.125 126.849C464.542 126.18 464.875 125.511 465.125 124.842C465.375 124.089 465.5 123.336 465.5 122.584C465.5 100.083 465.5 66.2896 465.5 21.2043C465.5 20.9534 465.417 20.7024 465.25 20.4515C465.167 20.2006 465.042 19.9496 464.875 19.6987C464.875 19.6987 464.833 19.6987 464.75 19.6987C464.75 19.6987 464.75 19.6569 464.75 19.5732C464.583 19.4059 464.375 19.2805 464.125 19.1968C463.875 19.1132 463.625 19.0713 463.375 19.0713C459.625 19.0713 454 19.0713 446.5 19.0713C445.75 19.0713 445.083 19.2386 444.5 19.5732C443.833 19.8242 443.25 20.2424 442.75 20.8279C441.75 22.1662 440.917 23.6301 440.25 25.2193C439.667 26.8923 439.375 28.6488 439.375 30.489C439.375 26.2231 437.917 22.6263 435 19.6987C432.083 16.6874 428.583 15.1818 424.5 15.1818Z" fill="#FFEDCA"/>
<path d="M416.046 118.888C412.063 124.828 407.125 129.101 401.234 131.705C395.425 134.39 389.242 135.773 382.687 135.855C376.131 135.855 369.907 134.756 364.015 132.559C358.124 130.362 353.145 126.293 349.078 120.352C345.095 114.412 342.274 106.722 340.614 97.2821C338.871 87.8423 338 78.9315 338 70.5497C338 62.1678 338.83 53.5418 340.49 44.6717C342.149 35.7202 344.971 28.2742 348.954 22.3337C352.937 16.3932 357.792 12.1616 363.517 9.63887C369.243 7.11617 375.592 5.85483 382.562 5.85483C389.201 5.85483 395.466 7.15686 401.358 9.76093C407.167 12.365 412.104 16.678 416.171 22.6999C420.154 28.6404 422.934 36.0051 424.51 44.7938C426.17 53.5825 427 62.1678 427 70.5497C427 78.9315 426.17 87.5982 424.51 96.5497C422.934 105.501 420.112 112.947 416.046 118.888ZM417.166 70.9159C417.166 63.5105 416.503 55.6576 415.175 47.3572C413.764 39.0567 411.607 32.3024 408.702 27.0943C405.798 21.8048 401.731 17.9393 396.503 15.498C391.193 12.9753 386.504 11.714 382.438 11.714C378.372 11.714 373.683 12.9753 368.372 15.498C363.144 18.0207 359.078 21.9268 356.173 27.2163C353.269 32.4245 351.111 39.0974 349.701 47.2351C348.29 55.2915 347.585 63.0223 347.585 70.4276C347.585 77.9143 348.29 85.9706 349.701 94.5966C351.194 103.223 353.393 110.18 356.298 115.47C359.202 120.678 363.269 124.259 368.497 126.212C373.807 128.165 378.496 129.141 382.562 129.141C386.628 129.141 391.317 127.88 396.628 125.357C401.939 122.916 406.047 119.091 408.951 113.883C411.855 108.593 413.972 101.961 415.299 93.9863C416.544 86.0113 417.166 78.3212 417.166 70.9159Z" fill="#FFEDCA"/>
<path d="M304.375 132.621C295.708 132.621 287.417 132.621 279.5 132.621C276.667 132.621 273.917 132.621 271.25 132.621C260.833 132.621 250.208 132.621 239.375 132.621C242.375 132.537 245 131.366 247.25 129.108C249.417 126.85 250.5 124.758 250.5 122.834C250.5 105.938 250.5 85.11 250.5 60.3508C250.5 35.5915 250.5 22.5845 250.5 21.3298C250.167 19.4896 248.833 17.9839 246.5 16.8129C244.167 15.6419 241.792 15.0563 239.375 15.0563C242.708 15.14 245.958 13.8853 249.125 11.2922C252.292 8.69921 254 5.10243 254.25 0.501884C254.5 3.17856 255.25 5.6043 256.5 7.77911C257.667 10.0376 259 11.1668 260.5 11.1668C265.917 11.2504 271.833 11.3759 278.25 11.5432C284.75 11.6268 290.167 11.7523 294.5 11.9196C297.583 11.9196 301.083 12.6724 305 14.178C308.917 15.7673 311.917 18.6531 314 22.8354C316.083 27.2687 316.917 32.9148 316.5 39.7738C316.083 46.5491 314.708 51.4843 312.375 54.5792C311.375 56.0012 310.625 56.9213 310.125 57.3395C309.625 57.7577 308.958 58.2596 308.125 58.8451C310.958 59.5143 313.5 60.4762 315.75 61.7309C318 63.0693 320.292 65.2022 322.625 68.1299C326.708 74.3197 328.75 83.1444 328.75 94.6039C328.75 95.9422 328.75 97.3224 328.75 98.7444C328.167 112.295 325.167 121.622 319.75 126.724C317.25 129.066 314.667 130.614 312 131.366C309.25 132.119 306.708 132.537 304.375 132.621ZM258.125 53.9518C258.125 54.3701 258.25 54.8301 258.5 55.332C258.833 55.8339 259.25 56.2103 259.75 56.4612C262.917 56.5449 268.542 56.6285 276.625 56.7122C284.625 56.7958 292.25 56.3357 299.5 55.332C301.667 54.0773 303.708 52.2371 305.625 49.8113C307.542 47.3019 308.708 43.4124 309.125 38.1427C309.292 34.5459 308.75 30.8655 307.5 27.1014C306.25 23.3373 304.292 21.037 301.625 20.2006C294.292 18.6113 287.5 17.7748 281.25 17.6912C274.917 17.5239 268.917 17.5657 263.25 17.8167C261.583 18.1512 260.333 18.8622 259.5 19.9496C258.583 21.037 258.083 21.8735 258 22.459C258 25.3866 258.042 29.9872 258.125 36.2606C258.208 42.5341 258.208 48.4312 258.125 53.9518ZM258.125 119.447C258.125 120.534 258.5 121.622 259.25 122.709C260 123.796 261.667 124.675 264.25 125.344C270.167 125.762 275.833 125.971 281.25 125.971C286.583 125.888 294.875 125.009 306.125 123.336C310.458 121.831 313.667 119.112 315.75 115.181C317.917 111.249 319.208 105.52 319.625 97.9916C319.708 91.0489 318.75 84.5245 316.75 78.4183C314.833 72.3958 311.708 68.339 307.375 66.2478C298.375 64.1567 289.5 63.1529 280.75 63.2366C272.083 63.4038 266.167 63.7384 263 64.2403C261.167 64.9095 259.917 65.5368 259.25 66.1224C258.667 66.7915 258.25 67.9626 258 69.6355C257.833 78.7529 257.792 87.0757 257.875 94.6039C257.958 102.048 258.042 110.329 258.125 119.447Z" fill="#FFEDCA"/>
<path d="M176.125 132.621C162.875 132.621 152.917 132.621 146.25 132.621C148.667 132.537 151.083 131.576 153.5 129.735C155.917 127.811 157.25 125.678 157.5 123.336C157.5 106.273 157.5 89.2924 157.5 72.3958C157.5 55.4156 157.5 38.4354 157.5 21.4553C157.417 20.6188 157.167 19.9915 156.75 19.5732C156.417 19.0713 156.042 18.6531 155.625 18.3185C153.958 17.0638 152.375 16.2274 150.875 15.8091C149.458 15.3073 147.917 15.0563 146.25 15.0563C150.333 15.0563 153.792 13.6343 156.625 10.7904C159.542 7.86275 161.083 4.43326 161.25 0.501884C161.583 4.85149 163.167 8.36463 166 11.0413C168.917 13.718 172.292 15.0563 176.125 15.0563C173.042 15.2236 170.625 15.8928 168.875 17.0638C167.125 18.1512 165.875 19.155 165.125 20.0751C165.125 20.1587 165.083 20.2842 165 20.4515C165 20.5352 165 20.6188 165 20.7024C165 59.4307 165 88.4559 165 107.778C165 107.945 165 108.071 165 108.155C165 108.322 165.042 108.406 165.125 108.406C165.208 108.406 165.292 108.406 165.375 108.406C165.458 108.322 165.583 108.196 165.75 108.029C166.75 106.607 168.042 104.6 169.625 102.007C171.208 99.3299 173.125 96.2768 175.375 92.8473C178.042 88.4977 180.792 84.1899 183.625 79.924C186.458 75.658 189.208 71.643 191.875 67.8789C193.958 64.6167 196.125 61.1872 198.375 57.5904C200.542 53.9936 202.75 50.3969 205 46.8001C207.917 42.1159 210.458 37.7245 212.625 33.6258C214.792 29.5271 216.375 25.763 217.375 22.3335C217.375 21.6644 217.292 21.1625 217.125 20.8279C216.958 20.4097 216.75 20.0333 216.5 19.6987C215.25 18.444 213.792 17.4402 212.125 16.6874C210.458 15.851 208.458 15.3909 206.125 15.3073C209.958 15.3073 213.375 13.9689 216.375 11.2922C219.375 8.53192 220.958 4.93513 221.125 0.501884C221.292 4.85149 222.833 8.40645 225.75 11.1668C228.667 13.9271 232.083 15.3491 236 15.4327C233.25 15.5164 231 16.0601 229.25 17.0638C227.5 18.0676 226.125 19.155 225.125 20.326C225.042 20.4933 224.958 20.6188 224.875 20.7024C224.875 20.7861 224.875 20.9116 224.875 21.0789C224.875 66.5824 224.875 100.71 224.875 123.462C225.125 126.055 226.458 128.23 228.875 129.986C231.208 131.743 233.583 132.621 236 132.621C222.75 132.621 212.833 132.621 206.25 132.621C208.667 132.621 211.125 131.701 213.625 129.861C216.042 127.937 217.292 125.804 217.375 123.462C217.375 85.4865 217.375 57.0467 217.375 38.1427C217.292 38.1427 217.167 38.1427 217 38.1427C216.917 38.2263 216.75 38.3518 216.5 38.5191C215.083 40.192 213.208 42.6178 210.875 45.7963C208.625 49.0585 206.083 52.6971 203.25 56.7122C200.75 60.3089 198.542 63.4875 196.625 66.2478C194.708 69.0081 193.125 71.4339 191.875 73.525C189.375 77.6237 186.833 81.806 184.25 86.072C181.667 90.4216 179.167 94.813 176.75 99.2463C174.833 102.592 173.125 105.812 171.625 108.907C170.125 111.919 168.833 114.846 167.75 117.69C167.25 119.196 166.875 120.451 166.625 121.454C166.375 122.458 166.25 123.713 166.25 125.218C166.167 127.059 167.083 128.732 169 130.237C170.917 131.826 173.292 132.621 176.125 132.621Z" fill="#FFEDCA"/>
<path d="M0 132.621C0.916667 132.621 1.66667 132.496 2.25 132.245C2.91667 131.91 3.54167 131.492 4.125 130.99C4.875 130.237 5.54167 129.484 6.125 128.732C6.79167 128.062 7.5 127.393 8.25 126.724C17.0833 117.941 26.2917 108.447 35.875 98.2425C45.5417 88.1213 55.0833 78.2092 64.5 68.5063C63.6667 66.4988 62.0417 63.8639 59.625 60.6017C57.125 57.3395 55.875 55.7084 55.875 55.7084C48.875 46.5073 41.75 37.348 34.5 28.2306C27.25 19.0295 20.25 9.78662 13.5 0.501888C20.5833 7.61182 27.3333 14.8054 33.75 22.0826C40.1667 29.3598 46.5 36.5534 52.75 43.6633C54.5833 45.6708 56.375 47.6365 58.125 49.5604C59.7917 51.4843 61.5417 53.4081 63.375 55.332C64.125 56.0848 64.8333 56.754 65.5 57.3395C66.0833 57.925 66.8333 58.5524 67.75 59.2215C67.75 50.7733 67.75 38.1009 67.75 21.2043C67.6667 20.7024 67.5417 20.2424 67.375 19.8242C67.2083 19.4896 67 19.1968 66.75 18.9459C65.0833 17.4402 63.4583 16.3947 61.875 15.8091C60.2917 15.14 58.6667 14.8054 57 14.8054C60.9167 14.8054 64.25 13.3834 67 10.5394C69.75 7.69546 71.2083 4.34961 71.375 0.501888C71.625 4.76785 73.0833 8.15552 75.75 10.6649C78.3333 13.1743 81.6667 14.5545 85.75 14.8054C83 14.9727 80.8333 15.5164 79.25 16.4365C77.5833 17.273 76.3333 18.2349 75.5 19.3223C75.3333 19.6569 75.2083 19.9496 75.125 20.2006C75.0417 20.5352 75 20.8279 75 21.0789C75 29.5271 75 42.2414 75 59.2215C75.4167 58.8869 75.8333 58.5524 76.25 58.2178C76.5833 57.8832 76.9583 57.5486 77.375 57.214C80.625 54.0355 83.6667 50.8151 86.5 47.5529C89.3333 44.3743 92.2083 41.0703 95.125 37.6408C100.625 31.3673 106.167 25.1357 111.75 18.9459C117.417 12.7561 123.25 6.56624 129.25 0.376419C121.417 11.0831 113.208 21.8735 104.625 32.7475C95.9583 43.5379 87.9167 54.1191 80.5 64.4912C80 65.1604 79.5833 65.7878 79.25 66.3733C78.8333 67.0425 78.4583 67.7534 78.125 68.5063C87.125 77.791 96.125 87.1175 105.125 96.4859C114.042 105.854 123.042 115.139 132.125 124.34C133.292 125.511 134.417 126.682 135.5 127.853C136.667 129.108 137.833 130.279 139 131.366C139.583 131.868 140.167 132.203 140.75 132.37C141.333 132.537 141.917 132.621 142.5 132.621C136.083 132.621 126.542 132.621 113.875 132.621C116.292 132.621 118.333 131.91 120 130.488C121.667 128.982 122.875 127.602 123.625 126.348C123.708 125.846 123.708 125.428 123.625 125.093C123.625 124.758 123.542 124.382 123.375 123.964C123.042 123.127 116.917 116.77 105 104.892C93 93.0983 83 83.1025 75 74.9052C75 85.5283 75 101.505 75 122.834C75.0833 125.177 76.2917 127.393 78.625 129.484C81.0417 131.576 83.4167 132.621 85.75 132.621C79.3333 132.621 69.75 132.621 57 132.621C60.0833 132.454 62.625 131.241 64.625 128.982C66.625 126.724 67.6667 124.717 67.75 122.96C67.75 112.253 67.75 96.1513 67.75 74.6543C59.8333 82.6007 44.0417 98.4516 20.375 122.207C19.7083 123.127 19.2917 123.88 19.125 124.466C18.875 124.967 18.875 125.553 19.125 126.222C20.2917 128.23 21.7917 129.819 23.625 130.99C25.375 132.077 27.125 132.621 28.875 132.621C22.4583 132.621 12.8333 132.621 0 132.621Z" fill="#FFEDCA"/>
</svg>
